<?xml version="1.0" standalone="no"?>
<!DOCTYPE svg PUBLIC "-//W3C//DTD SVG 20010904//EN"
 "http://www.w3.org/TR/2001/REC-SVG-20010904/DTD/svg10.dtd">
<svg version="1.0" xmlns="http://www.w3.org/2000/svg"
 width="1024.000000pt" height="1024.000000pt" viewBox="0 0 1024.000000 1024.000000"
 preserveAspectRatio="xMidYMid meet">

<g transform="translate(0.000000,1024.000000) scale(0.100000,-0.100000)"
fill="#000000" stroke="none">
<path d="M3268 10229 c-1580 -109 -2889 -1261 -3197 -2814 -69 -346 -66 -241
-66 -2290 0 -1978 -1 -1928 51 -2231 214 -1259 1122 -2315 2339 -2719 255 -85
451 -128 720 -160 195 -23 3825 -23 4020 0 269 32 465 75 720 160 1034 344
1857 1162 2205 2192 85 255 134 471 165 738 23 197 22 3824 0 4025 -174 1514
-1305 2743 -2800 3039 -343 68 -229 65 -2230 67 -995 1 -1863 -2 -1927 -7z
m4062 -2924 c72 -10 141 -54 167 -106 53 -105 -11 -210 -273 -444 -44 -39 -95
-83 -114 -99 -141 -113 -641 -612 -856 -855 -21 -24 -47 -52 -56 -63 -10 -10
-18 -20 -18 -23 0 -3 -13 -17 -28 -32 -23 -23 -120 -139 -182 -217 -8 -10 -31
-37 -50 -60 -19 -24 -46 -58 -60 -76 -14 -19 -36 -48 -51 -64 -65 -79 -237
-317 -357 -496 -31 -47 -60 -89 -65 -95 -4 -5 -26 -39 -49 -75 -22 -36 -60
-94 -83 -130 -24 -36 -52 -83 -64 -105 -20 -36 -42 -74 -106 -175 -32 -52
-131 -221 -147 -252 -7 -15 -35 -66 -62 -115 -27 -48 -58 -106 -69 -128 -11
-22 -22 -42 -26 -45 -3 -3 -37 -66 -74 -140 -38 -74 -73 -142 -77 -150 -20
-34 -117 -245 -116 -251 0 -4 -6 -15 -14 -25 -9 -11 -27 -44 -40 -74 -42 -97
-114 -180 -155 -180 -23 0 -111 58 -102 67 3 3 -8 23 -24 46 -16 22 -29 45
-29 50 0 6 -20 53 -45 106 -25 53 -56 119 -69 146 -13 28 -55 115 -94 195 -38
80 -73 156 -77 170 -4 14 -11 30 -15 35 -7 9 -28 48 -128 235 -79 149 -129
237 -153 272 -11 14 -19 29 -19 34 0 4 -11 22 -25 40 -14 18 -25 35 -25 37 0
3 -25 42 -55 87 -30 45 -55 83 -55 85 0 4 -99 140 -183 249 -55 72 -142 180
-229 284 -29 34 -66 86 -81 115 -24 44 -27 59 -22 97 15 99 81 180 166 204 46
14 73 15 160 7 98 -10 223 -41 244 -62 5 -5 17 -9 26 -9 14 0 85 -34 284 -138
47 -24 219 -125 225 -131 3 -3 30 -19 60 -35 30 -16 57 -32 60 -35 11 -13 70
-51 78 -51 5 0 17 -9 26 -19 10 -11 28 -22 42 -25 13 -4 24 -11 24 -16 0 -19
56 -10 86 13 16 12 313 306 660 652 566 566 841 834 988 966 27 24 67 63 89
87 22 23 44 42 50 42 6 0 36 22 66 48 67 57 279 222 286 222 3 0 13 7 23 15
36 33 152 115 160 115 5 0 19 11 32 25 13 14 29 25 36 25 6 0 17 7 24 15 37
45 262 166 325 175 6 1 20 5 90 29 33 11 69 18 80 16 11 -2 40 -7 65 -10z"/>
</g>
</svg>
